<svg width="137" height="35" viewBox="0 0 137 35" fill="none" xmlns="http://www.w3.org/2000/svg">
<path d="M18.5677 14.9668C18.5677 14.9871 18.5372 15.0023 18.4763 15.0125C18.4255 15.0226 18.395 15.0125 18.3849 14.982C18.2224 14.3931 17.9483 13.9565 17.5624 13.6722C17.1766 13.3878 16.6689 13.2457 16.0394 13.2457H15.5824C15.2778 13.2457 15.0544 13.3117 14.9123 13.4437C14.7701 13.5757 14.699 13.7788 14.699 14.0529V17.3428H15.7957C16.3846 17.3428 16.8314 17.2412 17.136 17.0382C17.4507 16.8249 17.6081 16.5355 17.6081 16.17C17.6081 16.1497 17.6386 16.1395 17.6995 16.1395C17.7604 16.1395 17.7909 16.1497 17.7909 16.17L17.7757 17.556C17.7757 17.8809 17.7807 18.1246 17.7909 18.2871L17.8061 19.0943C17.8061 19.1248 17.7757 19.14 17.7147 19.14C17.6538 19.14 17.6234 19.1248 17.6234 19.0943C17.6234 18.6882 17.4609 18.3683 17.136 18.1348C16.8212 17.8911 16.3694 17.7692 15.7804 17.7692H14.699V21.0286C14.699 21.3434 14.7397 21.5769 14.8209 21.7292C14.9021 21.8815 15.0544 21.9882 15.2778 22.0491C15.5012 22.11 15.8515 22.1405 16.3287 22.1405C16.349 22.1405 16.3592 22.1709 16.3592 22.2318C16.3592 22.2928 16.349 22.3232 16.3287 22.3232C15.9124 22.3232 15.5875 22.3182 15.354 22.308L13.8004 22.2928L12.6581 22.308C12.455 22.3182 12.1758 22.3232 11.8204 22.3232C11.79 22.3232 11.7747 22.2928 11.7747 22.2318C11.7747 22.1709 11.79 22.1405 11.8204 22.1405C12.1758 22.1405 12.4347 22.1151 12.5972 22.0643C12.7597 22.0135 12.8663 21.9171 12.917 21.7749C12.978 21.6226 13.0084 21.3942 13.0084 21.0895V14.0377C13.0084 13.7331 12.983 13.5097 12.9323 13.3675C12.8815 13.2254 12.78 13.1289 12.6277 13.0782C12.4753 13.0172 12.2418 12.9868 11.927 12.9868C11.8966 12.9868 11.8813 12.9563 11.8813 12.8954C11.8813 12.8345 11.8966 12.804 11.927 12.804H18.3849C18.4864 12.804 18.5372 12.8497 18.5372 12.9411L18.5677 14.9668Z" fill="#22100B"/>
<path d="M31.3466 22.1405C31.3974 22.1405 31.4228 22.1709 31.4228 22.2318C31.4228 22.2928 31.3974 22.3232 31.3466 22.3232C31.1436 22.3232 30.8288 22.3131 30.4023 22.2928C29.9556 22.2725 29.6357 22.2623 29.4428 22.2623C29.1889 22.2623 28.8792 22.2725 28.5137 22.2928C28.1685 22.3131 27.8943 22.3232 27.6912 22.3232C27.6506 22.3232 27.6303 22.2928 27.6303 22.2318C27.6303 22.1709 27.6506 22.1405 27.6912 22.1405C27.9552 22.1405 28.1431 22.1151 28.2548 22.0643C28.3766 22.0034 28.4376 21.9018 28.4376 21.7597C28.4376 21.5871 28.336 21.2977 28.1329 20.8915L26.5489 17.7692H23.8379L22.7565 20.1605C22.6245 20.4549 22.5585 20.7291 22.5585 20.9829C22.5585 21.3485 22.6854 21.6328 22.9392 21.8358C23.2032 22.0389 23.5536 22.1405 23.9902 22.1405C24.0409 22.1405 24.0663 22.1709 24.0663 22.2318C24.0663 22.2928 24.0409 22.3232 23.9902 22.3232C23.8074 22.3232 23.5434 22.3131 23.1982 22.2928C22.8123 22.2725 22.4772 22.2623 22.1929 22.2623C21.9188 22.2623 21.5888 22.2725 21.2029 22.2928C20.8577 22.3131 20.5785 22.3232 20.3652 22.3232C20.3246 22.3232 20.3043 22.2928 20.3043 22.2318C20.3043 22.1709 20.3246 22.1405 20.3652 22.1405C20.6496 22.1405 20.8882 22.0846 21.0811 21.9729C21.274 21.8511 21.4669 21.6429 21.6599 21.3485C21.8528 21.0438 22.0812 20.5971 22.3452 20.0082L25.6503 12.7431C25.6706 12.7126 25.7163 12.6974 25.7874 12.6974C25.8686 12.6974 25.9143 12.7126 25.9245 12.7431L29.7322 20.2366C30.0876 20.9575 30.382 21.4551 30.6156 21.7292C30.8491 22.0034 31.0928 22.1405 31.3466 22.1405ZM24.0359 17.3428H26.3357L25.1172 14.9363L24.0359 17.3428Z" fill="#22100B"/>
<path d="M35.5019 14.3423C35.5019 14.7078 35.5933 15.0328 35.776 15.3171C35.969 15.6014 36.2025 15.8502 36.4767 16.0634C36.7508 16.2766 37.1214 16.5355 37.5885 16.8402C38.0962 17.1651 38.5024 17.4494 38.807 17.6931C39.1116 17.9368 39.3705 18.2363 39.5837 18.5917C39.797 18.9369 39.9036 19.338 39.9036 19.7949C39.9036 20.3229 39.7614 20.7951 39.4771 21.2114C39.1928 21.6175 38.7968 21.9374 38.2891 22.1709C37.7916 22.3943 37.2331 22.506 36.6137 22.506C36.1568 22.506 35.6796 22.4451 35.182 22.3232C34.6845 22.1912 34.3494 22.0491 34.1768 21.8968C34.126 21.8562 34.0854 21.8206 34.055 21.7902C34.0347 21.7495 34.0245 21.6886 34.0245 21.6074L33.9788 19.1857V19.1705C33.9788 19.1298 34.0042 19.1095 34.055 19.1095C34.1057 19.0994 34.1362 19.1146 34.1464 19.1552C34.451 19.7746 34.715 20.2772 34.9384 20.6631C35.1719 21.0489 35.4613 21.3891 35.8065 21.6835C36.1619 21.978 36.563 22.1252 37.0097 22.1252C37.4159 22.1252 37.751 22.0186 38.015 21.8054C38.279 21.582 38.411 21.2063 38.411 20.6783C38.411 20.2315 38.3094 19.8406 38.1064 19.5055C37.9134 19.1705 37.6748 18.8862 37.3905 18.6526C37.1062 18.4191 36.7153 18.1398 36.2177 17.8149C35.7304 17.5002 35.3496 17.2311 35.0754 17.0077C34.8114 16.7843 34.583 16.5152 34.39 16.2005C34.1971 15.8857 34.1007 15.5151 34.1007 15.0886C34.1007 14.5505 34.253 14.0986 34.5576 13.7331C34.8724 13.3574 35.2734 13.0832 35.7608 12.9106C36.2482 12.7278 36.761 12.6365 37.2991 12.6365C37.6545 12.6365 38.015 12.672 38.3805 12.7431C38.746 12.804 39.0405 12.8802 39.2639 12.9715C39.3553 13.0122 39.4162 13.0578 39.4467 13.1086C39.4771 13.1492 39.4924 13.2051 39.4924 13.2762V15.5151C39.4924 15.5455 39.467 15.5709 39.4162 15.5912C39.3654 15.6014 39.335 15.5912 39.3248 15.5608L39.203 15.2714C38.9491 14.6317 38.6496 14.0885 38.3044 13.6417C37.9693 13.1949 37.4971 12.9715 36.8879 12.9715C36.4817 12.9715 36.1467 13.0883 35.8827 13.3218C35.6288 13.5554 35.5019 13.8955 35.5019 14.3423Z" fill="#22100B"/>
<path d="M53.3622 22.1405C53.3927 22.1405 53.4079 22.1709 53.4079 22.2318C53.4079 22.2928 53.3927 22.3232 53.3622 22.3232C53.0068 22.3232 52.7225 22.3182 52.5093 22.308L51.3365 22.2928L49.9658 22.308C49.783 22.3182 49.5342 22.3232 49.2195 22.3232C49.189 22.3232 49.1738 22.2928 49.1738 22.2318C49.1738 22.1709 49.189 22.1405 49.2195 22.1405C49.5952 22.1405 49.8693 22.1151 50.0419 22.0643C50.2145 22.0135 50.3313 21.9171 50.3922 21.7749C50.4532 21.6328 50.4836 21.4043 50.4836 21.0895V17.5865H45.5641V21.0895C45.5641 21.3942 45.5945 21.6226 45.6555 21.7749C45.7164 21.9171 45.8332 22.0135 46.0058 22.0643C46.1784 22.1151 46.4525 22.1405 46.8282 22.1405C46.8485 22.1405 46.8587 22.1709 46.8587 22.2318C46.8587 22.2928 46.8485 22.3232 46.8282 22.3232C46.4729 22.3232 46.1885 22.3182 45.9753 22.308L44.6502 22.2928L43.5079 22.308C43.3048 22.3182 43.0256 22.3232 42.6702 22.3232C42.6499 22.3232 42.6398 22.2928 42.6398 22.2318C42.6398 22.1709 42.6499 22.1405 42.6702 22.1405C43.0256 22.1405 43.2845 22.1151 43.447 22.0643C43.6095 22.0135 43.7212 21.9171 43.7821 21.7749C43.843 21.6226 43.8735 21.3942 43.8735 21.0895V14.0377C43.8735 13.7331 43.843 13.5097 43.7821 13.3675C43.7212 13.2254 43.6095 13.1289 43.447 13.0782C43.2947 13.0172 43.0459 12.9868 42.7007 12.9868C42.6702 12.9868 42.655 12.9563 42.655 12.8954C42.655 12.8345 42.6702 12.804 42.7007 12.804L43.5232 12.8192C43.9902 12.8395 44.3659 12.8497 44.6502 12.8497C45.0361 12.8497 45.4828 12.8395 45.9905 12.8192L46.8282 12.804C46.8485 12.804 46.8587 12.8345 46.8587 12.8954C46.8587 12.9563 46.8485 12.9868 46.8282 12.9868C46.4627 12.9868 46.1936 13.0172 46.021 13.0782C45.8484 13.1391 45.7265 13.2457 45.6555 13.398C45.5945 13.5402 45.5641 13.7635 45.5641 14.0682V17.16H50.4836V14.0682C50.4836 13.7635 50.4532 13.5402 50.3922 13.398C50.3313 13.2457 50.2145 13.1391 50.0419 13.0782C49.8693 13.0172 49.5952 12.9868 49.2195 12.9868C49.189 12.9868 49.1738 12.9563 49.1738 12.8954C49.1738 12.8345 49.189 12.804 49.2195 12.804L49.9658 12.8192C50.4735 12.8395 50.9304 12.8497 51.3365 12.8497C51.6107 12.8497 52.0016 12.8395 52.5093 12.8192L53.3622 12.804C53.3927 12.804 53.4079 12.8345 53.4079 12.8954C53.4079 12.9563 53.3927 12.9868 53.3622 12.9868C53.017 12.9868 52.7581 13.0172 52.5855 13.0782C52.423 13.1289 52.3113 13.2254 52.2504 13.3675C52.1996 13.5097 52.1742 13.7331 52.1742 14.0377V21.0895C52.1742 21.3942 52.1996 21.6226 52.2504 21.7749C52.3113 21.9171 52.423 22.0135 52.5855 22.0643C52.7479 22.1151 53.0068 22.1405 53.3622 22.1405Z" fill="#22100B"/>
<path d="M58.8251 21.0895C58.8251 21.4043 58.8505 21.6328 58.9012 21.7749C58.952 21.9171 59.0485 22.0135 59.1906 22.0643C59.3429 22.1151 59.5815 22.1405 59.9065 22.1405C59.9369 22.1405 59.9522 22.1709 59.9522 22.2318C59.9522 22.2928 59.9369 22.3232 59.9065 22.3232C59.5714 22.3232 59.3074 22.3182 59.1145 22.308L57.9569 22.2928L56.8298 22.308C56.6268 22.3182 56.3526 22.3232 56.0074 22.3232C55.9871 22.3232 55.9769 22.2928 55.9769 22.2318C55.9769 22.1709 55.9871 22.1405 56.0074 22.1405C56.3323 22.1405 56.5709 22.1151 56.7232 22.0643C56.8755 22.0135 56.9771 21.9171 57.0279 21.7749C57.0888 21.6226 57.1192 21.3942 57.1192 21.0895V14.0377C57.1192 13.7331 57.0888 13.5097 57.0279 13.3675C56.9771 13.2254 56.8755 13.1289 56.7232 13.0782C56.5709 13.0172 56.3323 12.9868 56.0074 12.9868C55.9871 12.9868 55.9769 12.9563 55.9769 12.8954C55.9769 12.8345 55.9871 12.804 56.0074 12.804L56.8298 12.8192C57.2969 12.8395 57.6726 12.8497 57.9569 12.8497C58.2717 12.8497 58.6626 12.8395 59.1297 12.8192L59.9065 12.804C59.9369 12.804 59.9522 12.8345 59.9522 12.8954C59.9522 12.9563 59.9369 12.9868 59.9065 12.9868C59.5917 12.9868 59.3582 13.0172 59.2058 13.0782C59.0535 13.1391 58.952 13.2457 58.9012 13.398C58.8505 13.5402 58.8251 13.7635 58.8251 14.0682V21.0895Z" fill="#22100B"/>
<path d="M67.6711 22.506C66.7268 22.506 65.884 22.2877 65.1428 21.8511C64.4117 21.4043 63.8431 20.8052 63.4369 20.0538C63.0409 19.2923 62.8429 18.4648 62.8429 17.5712C62.8429 16.5254 63.1069 15.6318 63.6349 14.8906C64.1629 14.1392 64.8381 13.5757 65.6606 13.2C66.4932 12.8243 67.3411 12.6365 68.2041 12.6365C69.1688 12.6365 70.0166 12.8649 70.7477 13.3218C71.4788 13.7686 72.0372 14.3626 72.4231 15.1038C72.8191 15.8451 73.0171 16.632 73.0171 17.4646C73.0171 18.3886 72.7734 19.2365 72.286 20.0082C71.7986 20.7798 71.1437 21.3891 70.3212 21.8358C69.5089 22.2826 68.6255 22.506 67.6711 22.506ZM68.1737 22.1252C68.7423 22.1252 69.25 21.9628 69.6968 21.6378C70.1537 21.3028 70.5091 20.8205 70.7629 20.1909C71.0168 19.5512 71.1437 18.7897 71.1437 17.9063C71.1437 16.9722 71.0015 16.1395 70.7172 15.4085C70.4329 14.6672 70.0217 14.0885 69.4835 13.6722C68.9454 13.2558 68.3158 13.0477 67.5949 13.0477C66.6709 13.0477 65.9601 13.398 65.4626 14.0986C64.9651 14.7891 64.7163 15.7588 64.7163 17.0077C64.7163 17.9926 64.8635 18.876 65.158 19.6578C65.4626 20.4295 65.8738 21.0337 66.3917 21.4703C66.9197 21.9069 67.5137 22.1252 68.1737 22.1252Z" fill="#22100B"/>
<path d="M86.2926 12.804C86.3129 12.804 86.3231 12.8345 86.3231 12.8954C86.3231 12.9563 86.3129 12.9868 86.2926 12.9868C85.8864 12.9868 85.5666 13.1492 85.333 13.4742C85.0995 13.7889 84.9827 14.2154 84.9827 14.7535V22.5517C84.9827 22.5822 84.9574 22.6025 84.9066 22.6126C84.866 22.6228 84.8355 22.6177 84.8152 22.5974L77.672 14.4642V20.3889C77.672 20.9271 77.7837 21.3535 78.007 21.6683C78.2304 21.9831 78.5401 22.1405 78.9361 22.1405C78.9564 22.1405 78.9666 22.1709 78.9666 22.2318C78.9666 22.2928 78.9564 22.3232 78.9361 22.3232C78.6518 22.3232 78.4335 22.3182 78.2812 22.308L77.4587 22.2928L76.5144 22.308C76.3418 22.3182 76.093 22.3232 75.7681 22.3232C75.7377 22.3232 75.7224 22.2928 75.7224 22.2318C75.7224 22.1709 75.7377 22.1405 75.7681 22.1405C76.2149 22.1405 76.5652 21.9831 76.8191 21.6683C77.0831 21.3535 77.215 20.9271 77.215 20.3889V13.9463C76.88 13.5808 76.5906 13.332 76.3469 13.2C76.1134 13.0578 75.8697 12.9868 75.6158 12.9868C75.5955 12.9868 75.5854 12.9563 75.5854 12.8954C75.5854 12.8345 75.5955 12.804 75.6158 12.804L76.2555 12.8192C76.3875 12.8294 76.5804 12.8345 76.8343 12.8345L77.9918 12.8192C78.134 12.8091 78.3066 12.804 78.5097 12.804C78.5909 12.804 78.6518 12.8243 78.6924 12.8649C78.733 12.9055 78.8041 12.9918 78.9057 13.1238C79.0783 13.3574 79.2001 13.5148 79.2712 13.596L84.541 19.6731V14.7535C84.541 14.2052 84.4294 13.7737 84.206 13.4589C83.9826 13.1442 83.6729 12.9868 83.2769 12.9868C83.2566 12.9868 83.2464 12.9563 83.2464 12.8954C83.2464 12.8345 83.2566 12.804 83.2769 12.804L83.9318 12.8192C84.2567 12.8395 84.5309 12.8497 84.7543 12.8497C84.9574 12.8497 85.2417 12.8395 85.6072 12.8192L86.2926 12.804Z" fill="#22100B"/>
<path d="M91.4612 21.0895C91.4612 21.4043 91.4866 21.6328 91.5373 21.7749C91.5881 21.9171 91.6846 22.0135 91.8267 22.0643C91.979 22.1151 92.2176 22.1405 92.5426 22.1405C92.573 22.1405 92.5882 22.1709 92.5882 22.2318C92.5882 22.2928 92.573 22.3232 92.5426 22.3232C92.2075 22.3232 91.9435 22.3182 91.7506 22.308L90.593 22.2928L89.4659 22.308C89.2629 22.3182 88.9887 22.3232 88.6435 22.3232C88.6232 22.3232 88.613 22.2928 88.613 22.2318C88.613 22.1709 88.6232 22.1405 88.6435 22.1405C88.9684 22.1405 89.207 22.1151 89.3593 22.0643C89.5116 22.0135 89.6132 21.9171 89.6639 21.7749C89.7249 21.6226 89.7553 21.3942 89.7553 21.0895V14.0377C89.7553 13.7331 89.7249 13.5097 89.6639 13.3675C89.6132 13.2254 89.5116 13.1289 89.3593 13.0782C89.207 13.0172 88.9684 12.9868 88.6435 12.9868C88.6232 12.9868 88.613 12.9563 88.613 12.8954C88.613 12.8345 88.6232 12.804 88.6435 12.804L89.4659 12.8192C89.933 12.8395 90.3087 12.8497 90.593 12.8497C90.9078 12.8497 91.2987 12.8395 91.7658 12.8192L92.5426 12.804C92.573 12.804 92.5882 12.8345 92.5882 12.8954C92.5882 12.9563 92.573 12.9868 92.5426 12.9868C92.2278 12.9868 91.9943 13.0172 91.8419 13.0782C91.6896 13.1391 91.5881 13.2457 91.5373 13.398C91.4866 13.5402 91.4612 13.7635 91.4612 14.0682V21.0895Z" fill="#22100B"/>
<path d="M97.3828 14.3423C97.3828 14.7078 97.4742 15.0328 97.657 15.3171C97.8499 15.6014 98.0835 15.8502 98.3576 16.0634C98.6318 16.2766 99.0024 16.5355 99.4695 16.8402C99.9771 17.1651 100.383 17.4494 100.688 17.6931C100.993 17.9368 101.251 18.2363 101.465 18.5917C101.678 18.9369 101.785 19.338 101.785 19.7949C101.785 20.3229 101.642 20.7951 101.358 21.2114C101.074 21.6175 100.678 21.9374 100.17 22.1709C99.6725 22.3943 99.1141 22.506 98.4947 22.506C98.0378 22.506 97.5605 22.4451 97.063 22.3232C96.5655 22.1912 96.2304 22.0491 96.0578 21.8968C96.007 21.8562 95.9664 21.8206 95.9359 21.7902C95.9156 21.7495 95.9055 21.6886 95.9055 21.6074L95.8598 19.1857V19.1705C95.8598 19.1298 95.8852 19.1095 95.9359 19.1095C95.9867 19.0994 96.0172 19.1146 96.0273 19.1552C96.3319 19.7746 96.5959 20.2772 96.8193 20.6631C97.0528 21.0489 97.3422 21.3891 97.6875 21.6835C98.0428 21.978 98.4439 22.1252 98.8907 22.1252C99.2968 22.1252 99.6319 22.0186 99.8959 21.8054C100.16 21.582 100.292 21.2063 100.292 20.6783C100.292 20.2315 100.19 19.8406 99.9873 19.5055C99.7944 19.1705 99.5558 18.8862 99.2715 18.6526C98.9872 18.4191 98.5962 18.1398 98.0987 17.8149C97.6113 17.5002 97.2305 17.2311 96.9564 17.0077C96.6924 16.7843 96.4639 16.5152 96.271 16.2005C96.0781 15.8857 95.9816 15.5151 95.9816 15.0886C95.9816 14.5505 96.1339 14.0986 96.4385 13.7331C96.7533 13.3574 97.1544 13.0832 97.6418 12.9106C98.1292 12.7278 98.6419 12.6365 99.1801 12.6365C99.5355 12.6365 99.8959 12.672 100.261 12.7431C100.627 12.804 100.921 12.8802 101.145 12.9715C101.236 13.0122 101.297 13.0578 101.328 13.1086C101.358 13.1492 101.373 13.2051 101.373 13.2762V15.5151C101.373 15.5455 101.348 15.5709 101.297 15.5912C101.246 15.6014 101.216 15.5912 101.206 15.5608L101.084 15.2714C100.83 14.6317 100.531 14.0885 100.185 13.6417C99.8502 13.1949 99.3781 12.9715 98.7689 12.9715C98.3627 12.9715 98.0276 13.0883 97.7636 13.3218C97.5098 13.5554 97.3828 13.8955 97.3828 14.3423Z" fill="#22100B"/>
<path d="M107.475 13.1543C106.267 13.1543 105.399 13.9412 104.871 15.5151C104.861 15.5455 104.83 15.5608 104.78 15.5608C104.729 15.5506 104.703 15.5303 104.703 15.4998C104.744 15.0937 104.79 14.5708 104.841 13.9311C104.891 13.2812 104.917 12.7938 104.917 12.4689C104.917 12.4182 104.942 12.3928 104.993 12.3928C105.054 12.3928 105.084 12.4182 105.084 12.4689C105.084 12.6923 105.374 12.804 105.952 12.804C106.826 12.8345 107.846 12.8497 109.014 12.8497C109.613 12.8497 110.247 12.8395 110.918 12.8192L111.953 12.804C112.339 12.804 112.618 12.7786 112.791 12.7278C112.974 12.6771 113.091 12.5755 113.141 12.4232C113.151 12.3826 113.182 12.3623 113.233 12.3623C113.294 12.3623 113.324 12.3826 113.324 12.4232C113.294 12.7278 113.258 13.2152 113.217 13.8854C113.187 14.5555 113.172 15.0937 113.172 15.4998C113.172 15.5303 113.146 15.5455 113.096 15.5455C113.045 15.5455 113.014 15.5303 113.004 15.4998C112.852 14.718 112.568 14.1342 112.151 13.7483C111.735 13.3523 111.222 13.1543 110.613 13.1543C110.319 13.1543 110.121 13.2203 110.019 13.3523C109.928 13.4742 109.882 13.7128 109.882 14.0682V21.0895C109.882 21.4043 109.912 21.6328 109.973 21.7749C110.034 21.9171 110.151 22.0135 110.324 22.0643C110.496 22.1151 110.77 22.1405 111.146 22.1405C111.177 22.1405 111.192 22.1709 111.192 22.2318C111.192 22.2928 111.177 22.3232 111.146 22.3232C110.781 22.3232 110.491 22.3182 110.278 22.308L109.014 22.2928L107.78 22.308C107.567 22.3182 107.272 22.3232 106.897 22.3232C106.866 22.3232 106.851 22.2928 106.851 22.2318C106.851 22.1709 106.866 22.1405 106.897 22.1405C107.262 22.1405 107.531 22.1151 107.704 22.0643C107.887 22.0135 108.009 21.9171 108.069 21.7749C108.141 21.6226 108.176 21.3942 108.176 21.0895V14.0377C108.176 13.6925 108.13 13.4589 108.039 13.3371C107.948 13.2152 107.76 13.1543 107.475 13.1543Z" fill="#22100B"/>
<path d="M125.254 22.1405C125.305 22.1405 125.33 22.1709 125.33 22.2318C125.33 22.2928 125.305 22.3232 125.254 22.3232C125.051 22.3232 124.736 22.3131 124.31 22.2928C123.863 22.2725 123.543 22.2623 123.35 22.2623C123.096 22.2623 122.786 22.2725 122.421 22.2928C122.076 22.3131 121.802 22.3232 121.598 22.3232C121.558 22.3232 121.538 22.2928 121.538 22.2318C121.538 22.1709 121.558 22.1405 121.598 22.1405C121.862 22.1405 122.05 22.1151 122.162 22.0643C122.284 22.0034 122.345 21.9018 122.345 21.7597C122.345 21.5871 122.243 21.2977 122.04 20.8915L120.456 17.7692H117.745L116.664 20.1605C116.532 20.4549 116.466 20.7291 116.466 20.9829C116.466 21.3485 116.593 21.6328 116.846 21.8358C117.11 22.0389 117.461 22.1405 117.897 22.1405C117.948 22.1405 117.974 22.1709 117.974 22.2318C117.974 22.2928 117.948 22.3232 117.897 22.3232C117.715 22.3232 117.451 22.3131 117.105 22.2928C116.72 22.2725 116.384 22.2623 116.1 22.2623C115.826 22.2623 115.496 22.2725 115.11 22.2928C114.765 22.3131 114.486 22.3232 114.272 22.3232C114.232 22.3232 114.212 22.2928 114.212 22.2318C114.212 22.1709 114.232 22.1405 114.272 22.1405C114.557 22.1405 114.795 22.0846 114.988 21.9729C115.181 21.8511 115.374 21.6429 115.567 21.3485C115.76 21.0438 115.988 20.5971 116.252 20.0082L119.558 12.7431C119.578 12.7126 119.624 12.6974 119.695 12.6974C119.776 12.6974 119.822 12.7126 119.832 12.7431L123.639 20.2366C123.995 20.9575 124.289 21.4551 124.523 21.7292C124.756 22.0034 125 22.1405 125.254 22.1405ZM117.943 17.3428H120.243L119.024 14.9363L117.943 17.3428Z" fill="#22100B"/>
<path d="M127.669 33.9999H1V4.55371" stroke="#D9D7DD"/>
<path d="M9.12307 1.00014L135.792 1.00014V30.4463" stroke="#D9D7DD"/>
</svg>
